<?xml version="1.0" encoding="utf-8"?>
<svg version="1.1" xmlns:xlink="http://www.w3.org/1999/xlink" width="85px" height="77px" xmlns="http://www.w3.org/2000/svg">
  <g transform="matrix(1 0 0 1 -249 -302 )">
    <path d="M 249 302  L 334 302  L 334 379  L 249 379  L 249 302  " fill-rule="nonzero" fill="#cccccc" stroke="none" />
    <path d="M 254 307  L 329 307  L 329 374  L 254 374  L 254 307  " fill-rule="nonzero" fill="#ffffff" stroke="none" />
    <path d="M 298.975 325.1  C 295.741 325.1  293.2 322.559  293.2 319.325  C 293.2 316.091  295.741 313.55  298.975 313.55  C 302.209 313.55  304.75 316.091  304.75 319.325  C 304.75 322.559  302.209 325.1  298.975 325.1  " fill-rule="nonzero" fill="#cccccc" stroke="none" />
    <path d="M 256 372  L 256 337.35  L 273.75 321.6  L 298.6 337.757647058824  L 312.8 331.05  L 327 337.757647058824  L 327 372  L 256 372  " fill-rule="nonzero" fill="#169bd5" stroke="none" />
  </g>
</svg>