<?xml version="1.0" encoding="utf-8"?>
<svg version="1.1" xmlns:xlink="http://www.w3.org/1999/xlink" width="18px" height="23px" xmlns="http://www.w3.org/2000/svg">
  <g transform="matrix(1 0 0 1 -357 -451 )">
    <path d="M 10.5772058823529 2.06640625  C 10.3345588235294 1.78404017857144  10.0441176470588 1.64285714285717  9.70588235294116 1.64285714285717  C 9.36764705882354 1.64285714285717  9.07720588235293 1.78404017857144  8.83455882352939 2.06640625  C 8.59191176470586 2.34877232142856  8.47058823529414 2.68675595238096  8.47058823529414 3.08035714285717  L 8.47058823529414 11.5  L 8.11764705882354 11.5  L 8.11764705882354 4.72321428571428  C 8.11764705882354 4.32961309523807  7.99632352941177 3.99162946428572  7.75367647058823 3.70926339285717  C 7.5110294117647 3.42689732142856  7.22058823529414 3.28571428571428  6.88235294117646 3.28571428571428  C 6.54411764705884 3.28571428571428  6.25367647058823 3.42689732142856  6.0110294117647 3.70926339285717  C 5.76838235294116 3.99162946428572  5.64705882352939 4.32961309523807  5.64705882352939 4.72321428571428  L 5.64705882352939 11.5  L 5.64705882352939 14.7857142857143  L 3.9485294117647 12.1545758928572  C 3.66911764705884 11.7181919642857  3.29411764705884 11.5  2.8235294117647 11.5  C 2.43382352941177 11.5  2.10110294117646 11.6604352678572  1.82536764705884 11.9813058035714  C 1.54963235294116 12.3021763392857  1.41176470588238 12.6893601190476  1.41176470588238 13.1428571428572  C 1.41176470588238 13.5107886904762  1.50735294117646 13.8402157738095  1.6985294117647 14.1311383928572  L 5.93382352941177 20.7025669642857  C 6.21323529411762 21.1389508928572  6.58823529411762 21.3571428571428  7.05882352941177 21.3571428571428  L 14.6470588235294 21.3571428571428  C 14.8970588235294 21.3571428571428  15.1213235294118 21.2630208333333  15.3198529411765 21.0747767857143  C 15.5183823529412 20.8865327380952  15.6433823529412 20.6469494047619  15.6948529411765 20.3560267857143  L 16.5330882352941 15.1579241071428  C 16.5698529411765 14.8841145833333  16.5882352941176 14.6316964285714  16.5882352941176 14.4006696428572  L 16.5882352941176 8.00892857142856  C 16.5882352941176 7.61532738095241  16.4669117647059 7.27734375  16.2242647058824 6.99497767857144  C 15.9816176470588 6.71261160714283  15.6911764705882 6.57142857142856  15.3529411764706 6.57142857142856  C 15.0147058823529 6.57142857142856  14.7242647058824 6.71261160714283  14.4816176470588 6.99497767857144  C 14.2389705882353 7.27734375  14.1176470588235 7.61532738095241  14.1176470588235 8.00892857142856  L 14.1176470588235 11.5  L 13.7647058823529 11.5  L 13.7647058823529 4.72321428571428  C 13.7647058823529 4.32961309523807  13.6433823529412 3.99162946428572  13.4007352941176 3.70926339285717  C 13.1580882352941 3.42689732142856  12.8676470588235 3.28571428571428  12.5294117647059 3.28571428571428  C 12.1911764705882 3.28571428571428  11.9007352941176 3.42689732142856  11.6580882352941 3.70926339285717  C 11.4154411764706 3.99162946428572  11.2941176470588 4.32961309523807  11.2941176470588 4.72321428571428  L 11.2941176470588 11.5  L 10.9411764705882 11.5  L 10.9411764705882 3.08035714285717  C 10.9411764705882 2.68675595238096  10.8198529411765 2.34877232142856  10.5772058823529 2.06640625  Z M 8.32169117647061 0.455636160714278  C 8.74448529411762 0.151878720238074  9.20588235294116 0  9.70588235294116 0  C 10.2058823529412 0  10.6672794117647 0.151878720238074  11.0900735294118 0.455636160714278  C 11.5128676470588 0.759393601190482  11.8382352941176 1.17224702380952  12.0661764705882 1.69419642857144  C 12.2058823529412 1.65997023809524  12.3602941176471 1.64285714285717  12.5294117647059 1.64285714285717  C 13.2573529411765 1.64285714285717  13.8805147058824 1.94447544642856  14.3988970588235 2.54771205357144  C 14.9172794117647 3.15094866071428  15.1764705882353 3.87611607142856  15.1764705882353 4.72321428571428  L 15.1764705882353 4.94140625  C 15.9485294117647 4.89006696428572  16.6121323529412 5.16387648809524  17.1672794117647 5.76283482142856  C 17.7224264705882 6.36179315476193  18 7.11049107142856  18 8.00892857142856  L 18 14.4006696428572  C 18 14.742931547619  17.9705882352941 15.0980282738095  17.9117647058824 15.4659598214286  L 17.0735294117647 20.6512276785714  C 16.9705882352941 21.3271949404762  16.6893382352941 21.8876488095238  16.2297794117647 22.3325892857143  C 15.7702205882353 22.7775297619048  15.2426470588235 23  14.6470588235294 23  L 7.05882352941177 23  C 6.61764705882354 23  6.19669117647061 22.8823474702381  5.79595588235293 22.6470424107143  C 5.3952205882353 22.4117373511905  5.0625 22.093005952381  4.79779411764707 21.6908482142857  L 0.5625 15.1194196428572  C 0.1875 14.5375744047619  0 13.8787202380952  0 13.1428571428572  C 0 12.2358630952381  0.275735294117624 11.4614955357143  0.827205882352928 10.8197544642857  C 1.37867647058823 10.1780133928572  2.04411764705884 9.85714285714283  2.8235294117647 9.85714285714283  C 3.39705882352939 9.85714285714283  3.86764705882354 10.0026041666667  4.23529411764707 10.2935267857143  L 4.23529411764707 4.72321428571428  C 4.23529411764707 3.87611607142856  4.49448529411762 3.15094866071428  5.01286764705884 2.54771205357144  C 5.53125 1.94447544642856  6.15441176470586 1.64285714285717  6.88235294117646 1.64285714285717  C 7.0514705882353 1.64285714285717  7.20588235294116 1.65997023809524  7.34558823529414 1.69419642857144  C 7.5735294117647 1.17224702380952  7.89889705882354 0.759393601190482  8.32169117647061 0.455636160714278  Z " fill-rule="nonzero" fill="#333333" stroke="none" transform="matrix(1 0 0 1 357 451 )" />
  </g>
</svg>