<?xml version="1.0" encoding="utf-8"?>
<svg version="1.1" xmlns:xlink="http://www.w3.org/1999/xlink" width="50px" height="28px" xmlns="http://www.w3.org/2000/svg">
  <g transform="matrix(1 0 0 1 -151 -692 )">
    <path d="M 49.072265625 22.7013888888889  C 49.6907552083333 23.3171296296296  50 24.0462962962963  50 24.8888888888889  C 50 25.7314814814815  49.6907552083333 26.4606481481481  49.072265625 27.0763888888889  C 48.4537760416667 27.6921296296296  47.7213541666667 28  46.875 28  L 3.125 28  C 2.27864583333333 28  1.54622395833333 27.6921296296296  0.927734375 27.0763888888889  C 0.309244791666667 26.4606481481481  0 25.7314814814815  0 24.8888888888889  C 0 24.0462962962963  0.309244791666667 23.3171296296296  0.927734375 22.7013888888889  L 22.802734375 0.923611111111112  C 23.4212239583333 0.307870370370367  24.1536458333333 0  25 0  C 25.8463541666667 0  26.5787760416667 0.307870370370367  27.197265625 0.923611111111112  L 49.072265625 22.7013888888889  Z " fill-rule="nonzero" fill="#333333" stroke="none" transform="matrix(1 0 0 1 151 692 )" />
  </g>
</svg>