<?xml version="1.0" encoding="utf-8"?>
<svg version="1.1" xmlns:xlink="http://www.w3.org/1999/xlink" width="50px" height="39px" xmlns="http://www.w3.org/2000/svg">
  <g transform="matrix(1 0 0 1 -320 -634 )">
    <path d="M 10.5712890625 26.154375  C 11.3362630208333 25.390625  11.71875 24.4725  11.71875 23.4  C 11.71875 22.3275  11.3362630208333 21.409375  10.5712890625 20.645625  C 9.80631510416667 19.881875  8.88671875 19.5  7.8125 19.5  C 6.73828125 19.5  5.81868489583333 19.881875  5.0537109375 20.645625  C 4.28873697916667 21.409375  3.90625 22.3275  3.90625 23.4  C 3.90625 24.4725  4.28873697916667 25.390625  5.0537109375 26.154375  C 5.81868489583333 26.918125  6.73828125 27.3  7.8125 27.3  C 8.88671875 27.3  9.80631510416667 26.918125  10.5712890625 26.154375  Z M 14.7705078125 6.898125  L 12.59765625 16  L 37.40234375 16  L 35.2294921875 6.898125  C 35.1969401041667 6.768125  35.0830078125 6.6259375  34.8876953125 6.4715625  C 34.6923828125 6.3171875  34.521484375 6.24  34.375 7  L 15.625 7  C 15.478515625 6.24  15.3076171875 6.3171875  15.1123046875 6.4715625  C 14.9169921875 6.6259375  14.8030598958333 6.768125  14.7705078125 6.898125  Z M 44.9462890625 26.154375  C 45.7112630208333 25.390625  46.09375 24.4725  46.09375 23.4  C 46.09375 22.3275  45.7112630208333 21.409375  44.9462890625 20.645625  C 44.1813151041667 19.881875  43.26171875 19.5  42.1875 19.5  C 41.11328125 19.5  40.1936848958333 19.881875  39.4287109375 20.645625  C 38.6637369791667 21.409375  38.28125 22.3275  38.28125 23.4  C 38.28125 24.4725  38.6637369791667 25.390625  39.4287109375 26.154375  C 40.1936848958333 26.918125  41.11328125 27.3  42.1875 27.3  C 43.26171875 27.3  44.1813151041667 26.918125  44.9462890625 26.154375  Z M 48.40087890625 17.1965625  C 49.4669596354167 18.2609375  50 19.54875  50 21.06  L 50 30.42  C 50 30.6475  49.9267578125 30.834375  49.7802734375 30.980625  C 49.6337890625 31.126875  49.4466145833333 31.2  49.21875 31.2  L 46.875 31.2  L 46.875 34.32  C 46.875 35.62  46.4192708333333 36.725  45.5078125 37.635  C 44.5963541666667 38.545  43.4895833333333 39  42.1875 39  C 40.8854166666667 39  39.7786458333333 38.545  38.8671875 37.635  C 37.9557291666667 36.725  37.5 35.62  37.5 34.32  L 37.5 31  L 12.5 31  L 12.5 34.32  C 12.5 35.62  12.0442708333333 36.725  11.1328125 37.635  C 10.2213541666667 38.545  9.11458333333333 39  7.8125 39  C 6.51041666666667 39  5.40364583333333 38.545  4.4921875 37.635  C 3.58072916666667 36.725  3.125 35.62  3.125 34.32  L 3.125 31.2  L 0.78125 31.2  C 0.553385416666667 31.2  0.3662109375 31.126875  0.2197265625 30.980625  C 0.0732421875 30.834375  0 30.6475  0 30.42  L 0 21.06  C 0 19.54875  0.533040364583333 18.2609375  1.59912109375 17.1965625  C 2.66520182291667 16.1321875  3.955078125 15.6  5.46875 15.6  L 6.15234375 15.6  L 8.7158203125 5.386875  C 9.09016927083333 3.859375  9.9365234375 2.5796875  11.2548828125 1.5478125  C 12.5732421875 0.515937499999998  14.0299479166667 0  15.625 0  L 34.375 0  C 35.9700520833333 0  37.4267578125 0.515937499999998  38.7451171875 1.5478125  C 40.0634765625 2.5796875  40.9098307291667 3.859375  41.2841796875 5.386875  L 43.84765625 15.6  L 44.53125 15.6  C 46.044921875 15.6  47.3347981770833 16.1321875  48.40087890625 17.1965625  Z " fill-rule="nonzero" fill="#ccff66" stroke="none" transform="matrix(1 0 0 1 320 634 )" />
  </g>
</svg>