<?xml version="1.0" encoding="utf-8"?>
<svg version="1.1" xmlns:xlink="http://www.w3.org/1999/xlink" width="12px" height="12px" viewBox="358 290  12 12" xmlns="http://www.w3.org/2000/svg">
  <path d="M 364 290  C 367.36 290  370 292.64  370 296  C 370 299.36  367.36 302  364 302  C 360.64 302  358 299.36  358 296  C 358 292.64  360.64 290  364 290  Z " fill-rule="nonzero" fill="#ffffff" stroke="none" />
  <path d="M 364 290.5  C 367.08 290.5  369.5 292.92  369.5 296  C 369.5 299.08  367.08 301.5  364 301.5  C 360.92 301.5  358.5 299.08  358.5 296  C 358.5 292.92  360.92 290.5  364 290.5  Z " stroke-width="1" stroke="#797979" fill="none" />
  <path d="M 364 299  C 362.32 299  361 297.68  361 296  C 361 294.32  362.32 293  364 293  C 365.68 293  367 294.32  367 296  C 367 297.68  365.68 299  364 299  " fill-rule="nonzero" fill="#797979" stroke="none" />
</svg>