<?xml version="1.0" encoding="utf-8"?>
<svg version="1.1" xmlns:xlink="http://www.w3.org/1999/xlink" width="98px" height="40px" xmlns="http://www.w3.org/2000/svg">
  <g transform="matrix(1 0 0 1 -280 -483 )">
    <path d="M 280 483  L 378 483  L 378 523  L 280 523  L 280 483  " fill-rule="nonzero" fill="#cccccc" stroke="none" />
    <path d="M 283 486  L 375 486  L 375 520  L 283 520  L 283 486  " fill-rule="nonzero" fill="#ffffff" stroke="none" />
    <path d="M 333.96 495  C 332.28 495  330.96 493.68  330.96 492  C 330.96 490.32  332.28 489  333.96 489  C 335.64 489  336.96 490.32  336.96 492  C 336.96 493.68  335.64 495  333.96 495  " fill-rule="nonzero" fill="#cccccc" stroke="none" />
    <path d="M 284 519  L 284 501.4  L 306.5 493.4  L 338 511.163265306122  L 356 498.2  L 374 511.163265306122  L 374 519  L 284 519  " fill-rule="nonzero" fill="#169bd5" stroke="none" />
  </g>
</svg>