<?xml version="1.0" encoding="utf-8"?>
<svg version="1.1" xmlns:xlink="http://www.w3.org/1999/xlink" width="98px" height="85px" xmlns="http://www.w3.org/2000/svg">
  <g transform="matrix(1 0 0 1 -116 -225 )">
    <path d="M 116 225  L 214 225  L 214 310  L 116 310  L 116 225  " fill-rule="nonzero" fill="#cccccc" stroke="none" />
    <path d="M 122 231  L 208 231  L 208 304  L 122 304  L 122 231  " fill-rule="nonzero" fill="#ffffff" stroke="none" />
    <path d="M 173.335 250.5  C 169.765 250.5  166.96 247.695  166.96 244.125  C 166.96 240.555  169.765 237.75  173.335 237.75  C 176.905 237.75  179.71 240.555  179.71 244.125  C 179.71 247.695  176.905 250.5  173.335 250.5  " fill-rule="nonzero" fill="#cccccc" stroke="none" />
    <path d="M 124 302  L 124 264.05  L 144.5 246.8  L 173.2 266.091836734694  L 189.6 257.15  L 206 266.091836734694  L 206 302  L 124 302  " fill-rule="nonzero" fill="#169bd5" stroke="none" />
  </g>
</svg>